<svg width="95" height="24" viewBox="0 0 95 24" fill="none" xmlns="http://www.w3.org/2000/svg">
<g clip-path="url(#clip0_1_4)">
<mask id="mask0_1_4" style="mask-type:luminance" maskUnits="userSpaceOnUse" x="0" y="0" width="95" height="24">
<path d="M95 0H0V24H95V0Z" fill="white"/>
</mask>
<g mask="url(#mask0_1_4)">
<mask id="mask1_1_4" style="mask-type:luminance" maskUnits="userSpaceOnUse" x="0" y="0" width="95" height="24">
<path d="M95 0H0V24H95V0Z" fill="white"/>
</mask>
<g mask="url(#mask1_1_4)">
<path fill-rule="evenodd" clip-rule="evenodd" d="M13.4361 24L23.9702 13.6725H23.9677C28.119 9.60501 29.8039 8.98749 37.7203 8.98749H69.293L78.3774 0H36.523C25.9271 0 22.9311 1.02 16.7165 7.23501L0 24H13.4361ZM37.9109 10.4225H67.9375L59.6101 18.8375H38.0668C34.1184 18.8375 33.245 19.025 31.2856 21.005L28.3219 24H15.863L25.0736 14.6925C28.6905 11.04 29.9375 10.4225 37.9109 10.4225ZM95 0L71.1856 24H56.4582L80.2082 0H95ZM79.32 23.24C79.8148 23.7475 80.4383 24 81.1879 24C81.9375 24 82.5535 23.7475 83.041 23.245C83.5282 22.7425 83.7707 22.12 83.7707 21.38C83.7707 20.64 83.5258 20.0175 83.0359 19.51C82.5461 19.0025 81.9277 18.75 81.1781 18.75C80.4285 18.75 79.8074 19.0025 79.3152 19.505C78.8227 20.0075 78.5754 20.63 78.5754 21.37C78.5754 22.11 78.8227 22.7325 79.32 23.24ZM79.6293 19.8075C80.0449 19.3775 80.5594 19.1625 81.173 19.1625C81.7891 19.1625 82.3035 19.3775 82.7168 19.8075C83.1301 20.2375 83.3379 20.76 83.3379 21.375C83.3379 21.99 83.1301 22.51 82.7168 22.9375C82.3012 23.365 81.7891 23.5775 81.173 23.5775C80.557 23.5775 80.0425 23.3625 79.6293 22.9325C79.216 22.5025 79.0082 21.9825 79.0082 21.37C79.0082 20.7575 79.216 20.2375 79.6293 19.8075ZM80.666 22.8375V21.8075L80.6684 21.81H81.2496L81.7422 22.84H82.3433L81.8015 21.735C81.9844 21.65 82.1133 21.54 82.1898 21.4025C82.2664 21.265 82.3036 21.055 82.3036 20.7725C82.3036 20.49 82.2097 20.2775 82.0215 20.1375C81.8336 19.995 81.5516 19.925 81.1781 19.925H80.0945V22.8375H80.666ZM80.6559 21.355V20.375H81.1285C81.5367 20.375 81.7395 20.5375 81.7395 20.865C81.7395 21.0375 81.7 21.1625 81.6207 21.24C81.5441 21.3175 81.4156 21.355 81.2375 21.355H80.6559Z" fill="white"/>
</g>
</g>
</g>
<defs>
<clipPath id="clip0_1_4">
<rect width="95" height="24" fill="white"/>
</clipPath>
</defs>
</svg>
