<svg width="20" height="21" viewBox="0 0 20 21" fill="none" xmlns="http://www.w3.org/2000/svg">
<path d="M18.9593 15.0866H17.4756C17.3318 15.0866 17.1958 15.161 17.1188 15.2842C16.7923 15.8018 16.4092 16.2813 15.9765 16.714C15.2315 17.4615 14.3484 18.0569 13.3761 18.4673C12.3673 18.8934 11.2969 19.109 10.1931 19.109C9.08675 19.109 8.01632 18.8934 7.01007 18.4673C6.03719 18.0566 5.16186 17.4662 4.40974 16.714C3.65762 15.9619 3.06722 15.0866 2.6565 14.1137C2.23039 13.1075 2.01476 12.037 2.01476 10.9307C2.01476 9.82432 2.23039 8.75646 2.6565 7.74764C3.06722 6.77476 3.65762 5.89943 4.40974 5.14731C5.16186 4.39519 6.03719 3.80478 7.01007 3.39407C8.01632 2.96795 9.08931 2.75233 10.1931 2.75233C11.2995 2.75233 12.3699 2.96795 13.3761 3.39407C14.349 3.80478 15.2244 4.39519 15.9765 5.14731C16.4092 5.58001 16.7923 6.05957 17.1188 6.57711C17.1958 6.70032 17.3318 6.77476 17.4756 6.77476H18.9593C19.1364 6.77476 19.2494 6.58994 19.1698 6.43335C17.4961 3.104 14.1026 0.940051 10.3138 0.896413C4.76655 0.827105 0.158845 5.36807 0.148577 10.9101C0.138309 16.4625 4.6382 20.9675 10.1905 20.9675C14.0282 20.9675 17.4782 18.7959 19.1698 15.428C19.1878 15.3921 19.1964 15.3521 19.1946 15.312C19.1929 15.2718 19.1809 15.2328 19.1598 15.1986C19.1387 15.1644 19.1092 15.1361 19.0741 15.1165C19.039 15.0969 18.9995 15.0866 18.9593 15.0866Z" fill="#E10500"/>
</svg>
