<svg width="24" height="24" viewBox="0 0 24 24" fill="none" xmlns="http://www.w3.org/2000/svg">
<g clip-path="url(#clip0_1_853)">
<path d="M23.5583 9.36372H16.9868C16.8739 9.36372 16.7815 9.45613 16.7815 9.56907V10.8012C16.7815 10.9142 16.8739 11.0066 16.9868 11.0066H23.5583C23.6712 11.0066 23.7636 10.9142 23.7636 10.8012V9.56907C23.7636 9.45613 23.6712 9.36372 23.5583 9.36372ZM20.1185 12.8548H16.9868C16.8739 12.8548 16.7815 12.9472 16.7815 13.0601V14.2923C16.7815 14.4052 16.8739 14.4976 16.9868 14.4976H20.1185C20.2315 14.4976 20.3239 14.4052 20.3239 14.2923V13.0601C20.3239 12.9472 20.2315 12.8548 20.1185 12.8548ZM11.5526 7.06628H10.4411C10.2819 7.06628 10.1536 7.19463 10.1536 7.35378V13.7199C10.1536 13.8123 10.1972 13.897 10.2716 13.9509L14.0939 16.7386C14.2222 16.831 14.4019 16.8053 14.4943 16.677L15.154 15.776V15.7734C15.2464 15.6451 15.2182 15.4654 15.0898 15.373L11.8375 13.0216V7.35378C11.8401 7.19463 11.7091 7.06628 11.5526 7.06628Z" fill="#E10500"/>
<path d="M19.9593 16.0866H18.4756C18.3318 16.0866 18.1958 16.161 18.1188 16.2842C17.7923 16.8018 17.4092 17.2813 16.9765 17.714C16.2315 18.4615 15.3484 19.0569 14.3761 19.4673C13.3673 19.8934 12.2969 20.109 11.1931 20.109C10.0867 20.109 9.01632 19.8934 8.01007 19.4673C7.03719 19.0566 6.16186 18.4662 5.40974 17.714C4.65762 16.9619 4.06722 16.0866 3.6565 15.1137C3.23039 14.1075 3.01476 13.037 3.01476 11.9307C3.01476 10.8243 3.23039 9.75646 3.6565 8.74764C4.06722 7.77476 4.65762 6.89943 5.40974 6.14731C6.16186 5.39519 7.03719 4.80478 8.01007 4.39407C9.01632 3.96795 10.0893 3.75233 11.1931 3.75233C12.2995 3.75233 13.3699 3.96795 14.3761 4.39407C15.349 4.80478 16.2244 5.39519 16.9765 6.14731C17.4092 6.58001 17.7923 7.05957 18.1188 7.57711C18.1958 7.70032 18.3318 7.77476 18.4756 7.77476H19.9593C20.1364 7.77476 20.2494 7.58994 20.1698 7.43335C18.4961 4.104 15.1026 1.94005 11.3138 1.89641C5.76655 1.8271 1.15884 6.36807 1.14858 11.9101C1.13831 17.4625 5.6382 21.9675 11.1905 21.9675C15.0282 21.9675 18.4782 19.7959 20.1698 16.428C20.1878 16.3921 20.1964 16.3521 20.1946 16.312C20.1929 16.2718 20.1809 16.2328 20.1598 16.1986C20.1387 16.1644 20.1092 16.1361 20.0741 16.1165C20.039 16.0969 19.9995 16.0866 19.9593 16.0866Z" fill="#E10500"/>
</g>
<defs>
<clipPath id="clip0_1_853">
<rect width="23" height="23" fill="white" transform="translate(0.943237 0.430664)"/>
</clipPath>
</defs>
</svg>
